# xmcd CD database file
#
# Track frame offsets:
#	150
#	19614
#	36817
#
# Disc length: 817 seconds
#
# Revision: 2
# Processed by: cddbd v1.5.2PL0 Copyright (c) Steve Scherf et al.
# Submitted via: CDex 1.70beta3
#
DISCID=18032f03
DTITLE=吉井和哉 - Beautiful
DYEAR=2006
DGENRE=Rock
TTITLE0=Beautiful
TTITLE1=Hikareta
TTITLE2=My Foolish Heart
EXTD=YEAR: 2006
EXTT0=
EXTT1=
EXTT2=
PLAYORDER=
